# xmcd
#
# Track frame offsets: 
#        150
#        15332
#        32927
#        53842
#        70462
#        91320
#        113322
#        134725
#        151470
#        169605
#        189782
#
# Disc length: 2649 seconds
#
# Revision: 2
# Processed by: cddbd v1.5.2PL0 Copyright (c) Steve Scherf et al.
# Submitted via: ExactAudioCopyFreeDBPlugin 1.0
#
DISCID=860a570b
DTITLE=杉本理恵 - 銀河の空想
DYEAR=1991
DGENRE=JPop
TTITLE0=10億光年のともだち
TTITLE1=月の兎はKISSがお好き
TTITLE2=わたし流星を抱いた
TTITLE3=宇宙へ行こう GO GO GO
TTITLE4=オーロラの涙
TTITLE5=乙女座失恋倶楽部
TTITLE6=MAMAが地球で恋をして
TTITLE7=落ちてきた少年
TTITLE8=愛してくれますか
TTITLE9=さよならのペガサス
TTITLE10=理恵のおしゃべり
EXTD=YEAR: 1991
EXTT0=
EXTT1=
EXTT2=
EXTT3=
EXTT4=
EXTT5=
EXTT6=
EXTT7=
EXTT8=
EXTT9=
EXTT10=
PLAYORDER=
